<svg width="24" height="24" viewBox="0 0 24 24" fill="none" xmlns="http://www.w3.org/2000/svg">
  <path opacity="0.32" 
  d="M20 9.95495V5C20 3.34315 18.6569 2 17 2H7C5.34315 2 4 3.34315 4 5V9.95495C4 10.6097 3.6819 11.2218 3.13428 11.5806C1.44167 12.6896 -0.28995 15 -1 15C-1.70995 15 -5.44167 12.6896 -6.86572 11.5806C-7.31807 11.2218 -7 10.6097 -7 9.95495V5C-7 3.34315 -5.34315 2 -4 2C-2.65685 2 -1 3.34315 -1 5V9.95495C-1 10.6097 -0.6819 11.2218 -0.13428 11.5806C1.55833 12.6896 5.28995 15 7 15C8.70995 15 12.4417 12.6896 13.8657 11.5806C14.3181 11.2218 14 10.6097 14 9.95495V5C14 3.34315 15.3432 2 17 2C18.6569 2 20 3.34315 20 5z" 
  fill="#1877F2"/>
</svg>